<?xml version="1.0" encoding="utf-8"?>
<!-- Generator: Adobe Illustrator 27.5.0, SVG Export Plug-In . SVG Version: 6.00 Build 0)  -->
<svg version="1.1" xmlns="http://www.w3.org/2000/svg" xmlns:xlink="http://www.w3.org/1999/xlink" x="0px" y="0px"
	 viewBox="0 0 750 500" style="enable-background:new 0 0 750 500;" xml:space="preserve">
<g id="BACKGROUND">
	<rect style="fill:#FFFFFF;" width="750" height="500"/>
</g>
<g id="OBJECTS">
	<g>
		<path style="fill:#CEDBED;" d="M458.78,419.938c0,2.394-30.564,4.335-68.267,4.335c-37.703,0-68.267-1.941-68.267-4.335
			c0-2.394,30.564-4.335,68.267-4.335C428.216,415.603,458.78,417.544,458.78,419.938z"/>
		<path style="fill:#CEDBED;" d="M156.72,397.927c0,0-27.108-98.892-27.108-157.549c0-73.209,43.206-115.99,180.145-145.99
			s287.349-53.333,326.644,14.667c39.296,68-25.068,288.872-25.068,288.872H156.72z"/>
		<linearGradient id="SVGID_1_" gradientUnits="userSpaceOnUse" x1="319.7674" y1="218.1443" x2="220.4339" y2="406.8112">
			<stop  offset="0.0532" style="stop-color:#A1C1ED"/>
			<stop  offset="1" style="stop-color:#A1C1ED;stop-opacity:0"/>
		</linearGradient>
		<path style="fill:url(#SVGID_1_);" d="M298.706,284.98c-29.073-100.742-97.909-67.661-97.909-67.661
			c-12.762-27.982-35.168-39.139-53.057-43.489c-12.805,18.95-18.129,40.876-18.129,66.548c0,58.657,27.108,157.549,27.108,157.549
			h264.419C403.095,296.958,298.706,284.98,298.706,284.98z"/>
		<g>
			<path style="fill:none;stroke:#1656BD;stroke-width:0.7405;stroke-miterlimit:10;" d="M176.912,304.576
				c0,0,13.118-64.036-5.022-60.653c-17.926,3.344-5.343,64.326-5.343,64.326L176.912,304.576z"/>
			<path style="fill:none;stroke:#1656BD;stroke-width:0.7405;stroke-miterlimit:10;" d="M171.89,243.923
				c0,0-1.137,41.922-0.012,62.437"/>
		</g>
		<g>
			<path style="fill:none;stroke:#1656BD;stroke-width:0.7405;stroke-miterlimit:10;" d="M159.058,308.108
				c0,0-10.019-64.594-25.844-55.101c-15.637,9.381,17.408,62.156,17.408,62.156L159.058,308.108z"/>
			<path style="fill:none;stroke:#1656BD;stroke-width:0.7405;stroke-miterlimit:10;" d="M133.215,253.007
				c0,0,13.543,39.691,21.746,58.527"/>
		</g>
		
			<linearGradient id="SVGID_00000105416026882865739170000001503554845281413525_" gradientUnits="userSpaceOnUse" x1="452.3231" y1="171.9982" x2="547.6564" y2="474.6645">
			<stop  offset="0.0532" style="stop-color:#A1C1ED"/>
			<stop  offset="1" style="stop-color:#A1C1ED;stop-opacity:0"/>
		</linearGradient>
		<path style="fill:url(#SVGID_00000105416026882865739170000001503554845281413525_);" d="M611.334,397.927
			c0,0,51.402-176.401,34.284-262.445c-19.901,2.93-58.288,13.716-68.975,53.441c-1.859,6.909-7.555,12.133-14.597,13.399
			c-28.181,5.066-95.625,23.089-108.823,80.756c0,0-120.53,16.323-134.534,114.85H611.334z"/>
		<g>
			<path style="fill:none;stroke:#1656BD;stroke-width:0.7405;stroke-miterlimit:10;" d="M600.69,316.398
				c0,0,19.883-62.269,1.485-60.842c-18.18,1.41-12.183,63.387-12.183,63.387L600.69,316.398z"/>
			<path style="fill:none;stroke:#1656BD;stroke-width:0.7405;stroke-miterlimit:10;" d="M602.174,255.556
				c0,0-5.608,41.561-6.681,62.078"/>
		</g>
		<g>
			<path style="fill:none;stroke:#1656BD;stroke-width:0.8373;stroke-miterlimit:10;" d="M618.974,322.141
				c0,0,37.442-68.557,16.671-68.675c-20.524-0.117-29.173,70.546-29.173,70.546L618.974,322.141z"/>
			<path style="fill:none;stroke:#1656BD;stroke-width:0.8373;stroke-miterlimit:10;" d="M635.645,253.466
				c0,0-16.487,46.479-22.743,69.584"/>
		</g>
		
			<linearGradient id="SVGID_00000037663180525002367980000013830171162379484601_" gradientUnits="userSpaceOnUse" x1="369.9457" y1="431.0549" x2="369.9457" y2="256.227">
			<stop  offset="0" style="stop-color:#6AB883"/>
			<stop  offset="1" style="stop-color:#DBB883"/>
		</linearGradient>
		<path style="fill:url(#SVGID_00000037663180525002367980000013830171162379484601_);" d="M633.203,376.388
			c0,0-4.366-78.346-30.754-50.638c0,0-1.937-50.525-23.353-56.946c-20.12-6.032-38.599,36.25-38.599,36.25
			s-81.856-13.625-112.702,46.677c0,0-45.136-26.656-76.032,0c0,0-9.513-58.121-22.328-58.121c-12.815,0-15.558,32.14-15.558,32.14
			s-47.99-37.595-83.786-11.479c0,0-9.611-53.691-32.198-48.637c-12.102,2.708-19.952,32.408-19.952,32.408
			s-31.287-5.668-36.264,48.672c0,0-10.555-0.912-14.7,16.131c-33.298-12.632-42.865,35.082-42.865,35.082h571.667
			C655.779,397.927,655.496,382.399,633.203,376.388z"/>
		
			<linearGradient id="SVGID_00000053512816274373228790000013885843611659767993_" gradientUnits="userSpaceOnUse" x1="468.0786" y1="294.5551" x2="468.0786" y2="428.5631">
			<stop  offset="0.0059" style="stop-color:#187D38"/>
			<stop  offset="0.9414" style="stop-color:#187D38;stop-opacity:0.059"/>
			<stop  offset="1" style="stop-color:#187D38;stop-opacity:0"/>
		</linearGradient>
		<path style="opacity:0.63;fill:url(#SVGID_00000053512816274373228790000013885843611659767993_);" d="M416.878,397.927
			c0,0,7.057-27.29,11.309-27.581c4.251-0.291,11.204,17.376,11.204,17.376s3.372-36.262,11.678-36.298
			c8.306-0.036,15.141,13.117,15.141,13.117s7.237-12.151,18.092-9.985c0,0,4.824-16.834,9.649-16.834s10.104,41.209,10.104,41.209
			s12.41,2.124,15.224,18.791L416.878,397.927z"/>
		
			<linearGradient id="SVGID_00000070834956796073292200000011569699939057873854_" gradientUnits="userSpaceOnUse" x1="316.6416" y1="325.7216" x2="316.6416" y2="399.6051">
			<stop  offset="0.0059" style="stop-color:#187D38"/>
			<stop  offset="0.9414" style="stop-color:#187D38;stop-opacity:0.059"/>
			<stop  offset="1" style="stop-color:#187D38;stop-opacity:0"/>
		</linearGradient>
		<path style="opacity:0.63;fill:url(#SVGID_00000070834956796073292200000011569699939057873854_);" d="M264.892,397.927
			c0,0-5-31.539,0-31.539s11.667,11.667,11.667,11.667s-2.173-48.805,9.247-49.236c11.42-0.431,27.557,31.356,27.557,31.356
			s15.451-20.212,25.53,8.771c0,0,31.11,5.188,31.722,28.982H264.892z"/>
		
			<linearGradient id="SVGID_00000058583899066758636850000015148129630371238308_" gradientUnits="userSpaceOnUse" x1="566.1287" y1="448.7557" x2="566.1287" y2="191.0459">
			<stop  offset="0.0059" style="stop-color:#187D38"/>
			<stop  offset="0.9414" style="stop-color:#187D38;stop-opacity:0.059"/>
			<stop  offset="1" style="stop-color:#187D38;stop-opacity:0"/>
		</linearGradient>
		<path style="opacity:0.63;fill:url(#SVGID_00000058583899066758636850000015148129630371238308_);" d="M639.471,397.927
			l1.901-18.492c-2.33-1.157-5.024-2.199-8.17-3.047c0,0-4.366-78.346-30.754-50.638c0,0-1.854-48.253-21.93-56.435
			c-28.803,6.172-35.235,59.487-35.235,59.487s-2.172-11.415-7.588-13.1c-5.417-1.685-19.417,43.685-19.417,43.685
			c-10.621-3.965-23.702,28.646-27.394,38.539H639.471z"/>
		
			<linearGradient id="SVGID_00000098183537442143287060000002352232807632184234_" gradientUnits="userSpaceOnUse" x1="162.9818" y1="443.805" x2="162.9818" y2="283.293">
			<stop  offset="0.0059" style="stop-color:#187D38"/>
			<stop  offset="0.9414" style="stop-color:#187D38;stop-opacity:0.059"/>
			<stop  offset="1" style="stop-color:#187D38;stop-opacity:0"/>
		</linearGradient>
		<path style="opacity:0.63;fill:url(#SVGID_00000098183537442143287060000002352232807632184234_);" d="M218.884,362.638
			c-3.468-22.044-21.774-11.452-21.774-11.452s-4.369-20.874-12.136-23.301c-7.767-2.427-9.709,3.728-9.709,3.728
			c-0.954-16.317-8.592-25.269-13.749-29.505c-8.398,5.427-17.365,17.61-19.838,44.607c0,0-10.554-0.912-14.7,16.131
			c-33.298-12.632-42.865,35.082-42.865,35.082h157.739C234.375,358.555,218.884,362.638,218.884,362.638z"/>
		<g>
			
				<linearGradient id="SVGID_00000077294051697905497940000014678187776212799406_" gradientUnits="userSpaceOnUse" x1="390.5169" y1="406.7947" x2="390.5169" y2="326.2988">
				<stop  offset="0" style="stop-color:#6AB883"/>
				<stop  offset="1" style="stop-color:#1858BC"/>
			</linearGradient>
			<polygon style="fill:url(#SVGID_00000077294051697905497940000014678187776212799406_);" points="424.319,417.44 356.714,417.44 
				360.626,323.252 420.408,323.252 			"/>
			
				<linearGradient id="SVGID_00000012468213619192309470000013803335053297237427_" gradientUnits="userSpaceOnUse" x1="390.9573" y1="313.5079" x2="390.9573" y2="377.339">
				<stop  offset="0" style="stop-color:#000000"/>
				<stop  offset="1" style="stop-color:#000000;stop-opacity:0"/>
			</linearGradient>
			<path style="opacity:0.42;fill:url(#SVGID_00000012468213619192309470000013803335053297237427_);" d="M359.852,341.874
				c3.046,2.437,9.694,5.929,23.43,7.068c14.872,1.234,29.737,6.548,38.78,14.141l-1.654-39.832h-59.782L359.852,341.874z"/>
			
				<linearGradient id="SVGID_00000031901495495273924240000009904466111927633302_" gradientUnits="userSpaceOnUse" x1="390.5169" y1="100.153" x2="390.5169" y2="397.0063">
				<stop  offset="0" style="stop-color:#6AB883"/>
				<stop  offset="1" style="stop-color:#1858BC"/>
			</linearGradient>
			<path style="fill:url(#SVGID_00000031901495495273924240000009904466111927633302_);" d="M511.507,333.591H269.526
				c-7.585,0-13.733-6.148-13.733-13.733V148.212c0-7.584,6.148-13.733,13.733-13.733h241.981c7.585,0,13.733,6.148,13.733,13.733
				v171.646C525.24,327.443,519.092,333.591,511.507,333.591z"/>
			<path style="fill:#FFFFFF;" d="M508.397,306.346h-235.76c-3.31,0-5.993-2.683-5.993-5.993V151.545
				c0-3.31,2.683-5.993,5.993-5.993h235.76c3.31,0,5.993,2.683,5.993,5.993v148.808C514.39,303.663,511.707,306.346,508.397,306.346
				z"/>
			<rect x="279.686" y="160.539" style="fill:#CEDBED;" width="221.661" height="36.955"/>
			<rect x="279.686" y="160.539" style="fill:#5A89D6;" width="36.955" height="36.955"/>
			<g>
				<path style="fill:none;stroke:#FFFFFF;stroke-width:1.2926;stroke-miterlimit:10;" d="M301.539,172.248
					c2.553,2.553,2.553,6.692,0,9.245c-2.553,2.553-6.692,2.553-9.245,0c-2.553-2.553-2.553-6.692,0-9.245
					C294.848,169.695,298.987,169.695,301.539,172.248z"/>
				
					<line style="fill:none;stroke:#FFFFFF;stroke-width:1.2926;stroke-miterlimit:10;" x1="301.539" y1="181.493" x2="307.747" y2="187.7"/>
			</g>
			<g>
				<path style="fill:#1656BD;" d="M371.111,179.017c0,1.586-1.286,2.872-2.872,2.872c-1.586,0-2.871-1.286-2.871-2.872
					c0-1.586,1.286-2.871,2.871-2.871C369.825,176.145,371.111,177.431,371.111,179.017z"/>
				<path style="fill:#1656BD;" d="M388.617,179.017c0,1.586-1.286,2.872-2.872,2.872c-1.586,0-2.871-1.286-2.871-2.872
					c0-1.586,1.286-2.871,2.871-2.871C387.331,176.145,388.617,177.431,388.617,179.017z"/>
				<path style="fill:#1656BD;" d="M406.123,179.017c0,1.586-1.285,2.872-2.871,2.872c-1.586,0-2.871-1.286-2.871-2.872
					c0-1.586,1.286-2.871,2.871-2.871C404.837,176.145,406.123,177.431,406.123,179.017z"/>
				<path style="fill:#1656BD;" d="M423.629,179.017c0,1.586-1.286,2.872-2.871,2.872c-1.586,0-2.871-1.286-2.871-2.872
					c0-1.586,1.285-2.871,2.871-2.871C422.344,176.145,423.629,177.431,423.629,179.017z"/>
				<path style="fill:#1656BD;" d="M441.135,179.017c0,1.586-1.286,2.872-2.871,2.872c-1.586,0-2.871-1.286-2.871-2.872
					c0-1.586,1.286-2.871,2.871-2.871C439.85,176.145,441.135,177.431,441.135,179.017z"/>
			</g>
			<rect x="279.686" y="211.711" style="fill:#FF8A8A;" width="77.028" height="77.028"/>
			<path style="fill:#1656BD;" d="M375.273,220.3h121.78c2.372,0,4.295-1.923,4.295-4.295l0,0c0-2.372-1.923-4.295-4.295-4.295
				h-121.78c-2.372,0-4.295,1.923-4.295,4.295l0,0C370.978,218.377,372.901,220.3,375.273,220.3z"/>
			<path style="fill:#1656BD;" d="M375.273,236.854h55.688c2.372,0,4.295-1.923,4.295-4.295l0,0c0-2.372-1.923-4.295-4.295-4.295
				h-55.688c-2.372,0-4.295,1.923-4.295,4.295l0,0C370.978,234.931,372.901,236.854,375.273,236.854z"/>
			
				<rect x="370.978" y="244.533" transform="matrix(-1 -1.224647e-16 1.224647e-16 -1 806.2339 492.069)" style="fill:#CCCCCC;" width="64.277" height="3.004"/>
			
				<rect x="370.978" y="254.833" transform="matrix(-1 -1.224647e-16 1.224647e-16 -1 872.3256 512.6702)" style="fill:#CCCCCC;" width="130.369" height="3.004"/>
			
				<rect x="370.978" y="265.134" transform="matrix(-1 -1.224647e-16 1.224647e-16 -1 872.3256 533.2714)" style="fill:#CCCCCC;" width="130.369" height="3.004"/>
			
				<rect x="370.978" y="275.435" transform="matrix(-1 -1.224647e-16 1.224647e-16 -1 872.3256 553.8728)" style="fill:#CCCCCC;" width="130.369" height="3.004"/>
			
				<rect x="370.978" y="285.735" transform="matrix(-1 -1.224647e-16 1.224647e-16 -1 872.3256 574.474)" style="fill:#CCCCCC;" width="130.369" height="3.004"/>
			<path style="fill:#1656BD;" d="M390.517,411.02c-20.334,0-39.007,2.429-53.714,6.485c-1.544,0.426-1.204,2.432,0.413,2.432
				h106.601c1.617,0,1.957-2.007,0.413-2.432C429.524,413.45,410.851,411.02,390.517,411.02z"/>
		</g>
		<g>
			
				<path style="fill:none;stroke:#CEDBED;stroke-width:2.0507;stroke-linecap:round;stroke-linejoin:round;stroke-miterlimit:10;" d="
				M114.853,283.732c-1.982-15.322-3.241-30.223-3.241-43.354c0-30.049,6.615-54.782,20.507-75.708"/>
			
				<path style="fill:none;stroke:#CEDBED;stroke-width:2.0507;stroke-linecap:round;stroke-linejoin:round;stroke-miterlimit:10;" d="
				M120.888,283.697c-2.001-15.324-3.276-30.224-3.276-43.319c0-35.585,9.651-63.344,30.146-86.009"/>
			
				<path style="fill:none;stroke:#CEDBED;stroke-width:2.0507;stroke-linecap:round;stroke-linejoin:round;stroke-miterlimit:10;" d="
				M126.936,283.733c-2.028-15.354-3.324-30.281-3.324-43.355c0-40.428,12.979-70.228,40.847-93.781"/>
		</g>
		<g>
			
				<path style="fill:none;stroke:#CEDBED;stroke-width:2.0507;stroke-linecap:round;stroke-linejoin:round;stroke-miterlimit:10;" d="
				M666.802,165.048c1.204,30.18-1.989,67.726-9.586,112.407c-0.861,5.067-1.755,10.081-2.671,15.024"/>
			
				<path style="fill:none;stroke:#CEDBED;stroke-width:2.0507;stroke-linecap:round;stroke-linejoin:round;stroke-miterlimit:10;" d="
				M660.428,157.223c2.161,30.867-0.878,70.709-9.127,119.226c-0.794,4.667-1.614,9.289-2.455,13.85"/>
			
				<path style="fill:none;stroke:#CEDBED;stroke-width:2.0507;stroke-linecap:round;stroke-linejoin:round;stroke-miterlimit:10;" d="
				M653.516,147.693c4.779,41.388-2.13,96.583-11.179,144.785"/>
		</g>
		<g>
			
				<linearGradient id="SVGID_00000017506118548923544110000000665286925445617341_" gradientUnits="userSpaceOnUse" x1="95.9156" y1="301.6714" x2="145.907" y2="301.6714">
				<stop  offset="0.0428" style="stop-color:#FFA526"/>
				<stop  offset="1" style="stop-color:#FF6026"/>
			</linearGradient>
			<path style="fill:url(#SVGID_00000017506118548923544110000000665286925445617341_);" d="M145.907,348.149
				c0,0-13.107-103.974-42.107-104.974c-29-1,31.333,117,31.333,117L145.907,348.149z"/>
			<path style="fill:none;stroke:#0C3069;stroke-width:0.8576;stroke-miterlimit:10;" d="M100.883,243.563
				c0,0,26.167,52.624,39.475,110.779"/>
		</g>
		<g>
			
				<linearGradient id="SVGID_00000147190011189454050530000018019541754515054725_" gradientUnits="userSpaceOnUse" x1="148.2346" y1="306.7724" x2="169.2071" y2="306.7724">
				<stop  offset="0.0428" style="stop-color:#FFA526"/>
				<stop  offset="1" style="stop-color:#FF6026"/>
			</linearGradient>
			<path style="fill:url(#SVGID_00000147190011189454050530000018019541754515054725_);" d="M159.248,265.274
				c15.191,2.004,10.243,49.913,3.281,83.049l-11.3-1.289C151.229,347.034,140.655,262.822,159.248,265.274z"/>
			<path style="fill:none;stroke:#0C3069;stroke-width:0.9437;stroke-miterlimit:10;" d="M159.248,265.274
				c0,0,2.153,34.935-2.479,82.392"/>
		</g>
		<g>
			<g>
				
					<linearGradient id="SVGID_00000073000542145068093820000015898142181952263603_" gradientUnits="userSpaceOnUse" x1="658.0367" y1="277.4189" x2="600.3701" y2="378.0856">
					<stop  offset="0.0428" style="stop-color:#FFA526"/>
					<stop  offset="1" style="stop-color:#FF6026"/>
				</linearGradient>
				<path style="fill:url(#SVGID_00000073000542145068093820000015898142181952263603_);" d="M595.361,371.725
					c0,0,34.273-99.034,62.855-94.031c28.583,5.003-54.794,108.02-54.794,108.02L595.361,371.725z"/>
				<path style="fill:none;stroke:#0C3069;stroke-width:0.8576;stroke-miterlimit:10;" d="M660.991,278.676
					c0,0-36.46,46.095-61.478,100.254"/>
			</g>
			
				<linearGradient id="SVGID_00000065762069515477290060000004810066276704275105_" gradientUnits="userSpaceOnUse" x1="636.907" y1="319.8296" x2="590.9072" y2="381.0794">
				<stop  offset="0" style="stop-color:#000000"/>
				<stop  offset="0.9315" style="stop-color:#000000;stop-opacity:0"/>
			</linearGradient>
			<path style="opacity:0.42;fill:url(#SVGID_00000065762069515477290060000004810066276704275105_);" d="M624.029,354.125
				c-8-0.695-12,11.805-12,11.805s6.917-34.168,0.109-35.006c-10.016,21.274-16.776,40.802-16.776,40.802l8.061,13.99
				c0,0,10.63-13.135,22.996-30.249C625.839,354.699,625.061,354.215,624.029,354.125z"/>
		</g>
		<g>
			<g>
				
					<linearGradient id="SVGID_00000140734934417623593360000018404436414916463754_" gradientUnits="userSpaceOnUse" x1="614.5367" y1="288.3444" x2="590.8701" y2="341.1776">
					<stop  offset="0.0428" style="stop-color:#FFA526"/>
					<stop  offset="1" style="stop-color:#FF6026"/>
				</linearGradient>
				<path style="fill:url(#SVGID_00000140734934417623593360000018404436414916463754_);" d="M611.883,284.555
					c-15.027-2.995-25.772,43.955-29.853,77.567l11.113,2.419C593.143,364.541,630.275,288.221,611.883,284.555z"/>
				<path style="fill:none;stroke:#0C3069;stroke-width:0.9437;stroke-miterlimit:10;" d="M611.883,284.555
					c0,0-13.29,32.38-24.188,78.8"/>
			</g>
			
				<linearGradient id="SVGID_00000031903866058983823670000010808051299486758573_" gradientUnits="userSpaceOnUse" x1="609.3152" y1="303.4947" x2="577.3154" y2="367.6611">
				<stop  offset="0" style="stop-color:#000000"/>
				<stop  offset="0.9315" style="stop-color:#000000;stop-opacity:0"/>
			</linearGradient>
			<path style="opacity:0.42;fill:url(#SVGID_00000031903866058983823670000010808051299486758573_);" d="M606.472,333.793
				c-5.444,5.347-10.443,16.22-10.443,16.22s7.5-46.786,1-46.934c-0.696-0.016-1.404,0.235-2.113,0.673
				c-6.139,16.094-10.578,39.363-12.886,58.37l11.113,2.419C593.143,364.541,600.08,350.28,606.472,333.793z"/>
		</g>
		<g>
			
				<linearGradient id="SVGID_00000078729065813569484360000007595951564256101530_" gradientUnits="userSpaceOnUse" x1="82.9505" y1="339.9406" x2="129.6119" y2="339.9406">
				<stop  offset="0.0428" style="stop-color:#FFA526"/>
				<stop  offset="1" style="stop-color:#FF6026"/>
			</linearGradient>
			<path style="fill:url(#SVGID_00000078729065813569484360000007595951564256101530_);" d="M129.612,364.833
				c0,0-27.412-72.996-43.583-58.061c-15.979,14.759,35.447,68.351,35.447,68.351L129.612,364.833z"/>
			<path style="fill:none;stroke:#0C3069;stroke-width:0.8833;stroke-miterlimit:10;" d="M86.029,306.772
				c0,0,25.47,43.056,39.631,63.059"/>
		</g>
		<g>
			
				<linearGradient id="SVGID_00000074405818475144278110000012833568972227737480_" gradientUnits="userSpaceOnUse" x1="312.0884" y1="82.3697" x2="312.0884" y2="131.229">
				<stop  offset="0" style="stop-color:#000000"/>
				<stop  offset="0.9315" style="stop-color:#000000;stop-opacity:0"/>
			</linearGradient>
			
				<circle style="opacity:0.42;fill:url(#SVGID_00000074405818475144278110000012833568972227737480_);" cx="312.088" cy="99.074" r="23.336"/>
			
				<linearGradient id="SVGID_00000039103547342725494210000013096367601157750670_" gradientUnits="userSpaceOnUse" x1="311.1559" y1="80.8154" x2="311.1559" y2="129.6747">
				<stop  offset="0.0428" style="stop-color:#FFA526"/>
				<stop  offset="1" style="stop-color:#FF6026"/>
			</linearGradient>
			<circle style="fill:url(#SVGID_00000039103547342725494210000013096367601157750670_);" cx="311.156" cy="97.52" r="23.336"/>
		</g>
		<g>
			<ellipse style="fill:#CEDBED;" cx="566.129" cy="417.44" rx="82.134" ry="4.335"/>
			
				<linearGradient id="SVGID_00000036972206398085523620000005948858370567579547_" gradientUnits="userSpaceOnUse" x1="561.1957" y1="423.7841" x2="561.1957" y2="361.4615">
				<stop  offset="0" style="stop-color:#6AB883"/>
				<stop  offset="1" style="stop-color:#DBB883"/>
			</linearGradient>
			<path style="fill:url(#SVGID_00000036972206398085523620000005948858370567579547_);" d="M497.779,416.465h125.5
				c0,0,3-26.014,0-26.014s-8,6.5-8,6.5s7-24.109-1-24.805c-8-0.695-12,11.805-12,11.805s7-34.563,0-35.031
				c-7-0.469-16,19.114-16,19.114s7.5-46.786,1-46.934s-14,21.852-14,21.852s4.106-38.5-6.447-39.5s-21.548,59.5-21.548,59.5
				s-2.277-21.895-9.505-22.578c-7.228-0.682-15.489,49.578-15.489,49.578s2.265-10.5-5.123-9
				C507.779,382.451,497.779,416.465,497.779,416.465z"/>
		</g>
		
			<linearGradient id="SVGID_00000083077218946379275430000005697713240257612685_" gradientUnits="userSpaceOnUse" x1="117.1907" y1="326.2109" x2="145.907" y2="326.2109">
			<stop  offset="0" style="stop-color:#000000"/>
			<stop  offset="0.9315" style="stop-color:#000000;stop-opacity:0"/>
		</linearGradient>
		<path style="opacity:0.42;fill:url(#SVGID_00000083077218946379275430000005697713240257612685_);" d="M135.133,360.175
			l10.774-12.026c0,0-3.604-28.57-11.209-55.901c-7.028,10.387-6.213,47.375-6.213,47.375s-6.97-17.473-11.024-17.62
			c-0.093-0.003-0.181,0.007-0.271,0.013C126.409,343.109,135.133,360.175,135.133,360.175z"/>
		
			<linearGradient id="SVGID_00000113346809729294967160000015552724964182258102_" gradientUnits="userSpaceOnUse" x1="157.173" y1="290.055" x2="157.173" y2="355.6623">
			<stop  offset="0" style="stop-color:#000000"/>
			<stop  offset="0.9315" style="stop-color:#000000;stop-opacity:0"/>
		</linearGradient>
		<path style="opacity:0.42;fill:url(#SVGID_00000113346809729294967160000015552724964182258102_);" d="M162.529,348.323
			c1.304-6.206,2.537-12.93,3.58-19.774c-1.693-12.273-4.376-26.144-7.859-26.144c-6.247,0-5.88,20.62-5.88,20.62
			s-0.839-12.697-4.134-22.45c-0.062,22.126,2.992,46.459,2.992,46.459L162.529,348.323z"/>
		<g>
			
				<linearGradient id="SVGID_00000039119229745102991710000003858140335599153536_" gradientUnits="userSpaceOnUse" x1="112.3367" y1="351.9713" x2="129.6119" y2="351.9713">
				<stop  offset="0" style="stop-color:#000000"/>
				<stop  offset="0.9315" style="stop-color:#000000;stop-opacity:0"/>
			</linearGradient>
			<path style="opacity:0.42;fill:url(#SVGID_00000039119229745102991710000003858140335599153536_);" d="M114.05,366.93
				c4.378,5.015,7.427,8.193,7.427,8.193l8.135-10.291c0,0-7.246-19.294-16.485-36.014
				C111.314,339.012,113.052,357.976,114.05,366.93z"/>
			
				<linearGradient id="SVGID_00000090980402902134305120000017244607665762166967_" gradientUnits="userSpaceOnUse" x1="106.0484" y1="361.162" x2="112.3798" y2="361.162">
				<stop  offset="0.0428" style="stop-color:#FFA526"/>
				<stop  offset="1" style="stop-color:#FF6026"/>
			</linearGradient>
			<path style="fill:url(#SVGID_00000090980402902134305120000017244607665762166967_);" d="M112.38,365.001
				c-1.467-3.731-3.488-7.607-5.575-7.677c-0.258-0.009-0.509,0.018-0.757,0.065C108.273,360.157,110.423,362.724,112.38,365.001z"
				/>
		</g>
		<g>
			<ellipse style="fill:#CEDBED;" cx="169.756" cy="417.44" rx="82.134" ry="4.335"/>
			
				<linearGradient id="SVGID_00000070825999078748794000000005320249621416343714_" gradientUnits="userSpaceOnUse" x1="169.2072" y1="446.656" x2="169.2072" y2="342.4099">
				<stop  offset="0" style="stop-color:#6AB883"/>
				<stop  offset="1" style="stop-color:#DBB883"/>
			</linearGradient>
			<path style="fill:url(#SVGID_00000070825999078748794000000005320249621416343714_);" d="M99.426,416.465h139.562
				c0,0-14.716-42.598-20.549-42.264c-5.833,0.333-6.915,16.333-6.915,16.333s-1.919-28.667-8.319-28.333
				c-6.4,0.333-7.87,24.667-7.87,24.667s-1.837-36-4.41-36c-2.572,0-2.572,17-2.572,17s-1.914-27.263-7.755-27.632
				c-5.841-0.368-7.679,23.994-7.679,23.994s-3.675-44.614-9.922-44.614c-6.247,0-5.88,20.62-5.88,20.62
				s-2.205-33.558-13.596-33.463c-11.392,0.095-10.289,50.06-10.289,50.06s-6.97-17.473-11.024-17.62
				c-9.554-0.346-2.82,49.853-2.82,49.853s-3.797-14.396-7.836-14.532C101.631,374.201,99.426,416.465,99.426,416.465z"/>
		</g>
		<g>
			
				<linearGradient id="SVGID_00000175293665998491784730000018122916014794998937_" gradientUnits="userSpaceOnUse" x1="207.2426" y1="129.3695" x2="207.2426" y2="193.6225">
				<stop  offset="0" style="stop-color:#000000"/>
				<stop  offset="0.9315" style="stop-color:#000000;stop-opacity:0"/>
			</linearGradient>
			<polygon style="opacity:0.42;fill:url(#SVGID_00000175293665998491784730000018122916014794998937_);" points="250.343,130.724 
				164.142,130.724 164.142,157.836 210.612,157.836 219.746,169.518 219.746,157.836 250.343,157.836 			"/>
			<polygon style="fill:#3D7EEB;" points="247.635,128.376 161.434,128.376 161.434,155.488 207.903,155.488 217.038,167.17 
				217.038,155.488 247.635,155.488 			"/>
			<rect x="161.434" y="128.376" style="fill:#1656BD;" width="27.112" height="27.112"/>
			
				<line style="fill:none;stroke:#CEDBED;stroke-width:0.698;stroke-miterlimit:10;" x1="188.545" y1="130.724" x2="188.545" y2="153.139"/>
			<g>
				<path style="fill:#77AAFF;" d="M215.409,136.313h-21.052c-0.658,0-1.19-0.533-1.19-1.19l0,0c0-0.658,0.533-1.191,1.19-1.191
					h21.052c0.657,0,1.19,0.533,1.19,1.191l0,0C216.599,135.78,216.066,136.313,215.409,136.313z"/>
				<path style="fill:#77AAFF;" d="M215.409,140.852h-21.052c-0.658,0-1.19-0.533-1.19-1.19l0,0c0-0.658,0.533-1.191,1.19-1.191
					h21.052c0.657,0,1.19,0.533,1.19,1.191l0,0C216.599,140.32,216.066,140.852,215.409,140.852z"/>
				<path style="fill:#77AAFF;" d="M240.09,145.392h-45.733c-0.658,0-1.19-0.533-1.19-1.191l0,0c0-0.657,0.533-1.19,1.19-1.19
					h45.733c0.658,0,1.19,0.533,1.19,1.19l0,0C241.281,144.859,240.748,145.392,240.09,145.392z"/>
				<path style="fill:#77AAFF;" d="M240.09,149.932h-45.733c-0.658,0-1.19-0.533-1.19-1.19l0,0c0-0.658,0.533-1.191,1.19-1.191
					h45.733c0.658,0,1.19,0.533,1.19,1.191l0,0C241.281,149.399,240.748,149.932,240.09,149.932z"/>
			</g>
		</g>
		<g>
			<path style="fill:#CEDBED;" d="M271.529,437.928c0,1.022-8.633,1.85-19.283,1.85c-10.65,0-19.283-0.828-19.283-1.85
				c0-1.022,8.633-1.85,19.283-1.85C262.896,436.077,271.529,436.906,271.529,437.928z"/>
			<path style="fill:#CEDBED;" d="M184.928,437.928c0,1.022-8.633,1.85-19.283,1.85s-19.283-0.828-19.283-1.85
				c0-1.022,8.633-1.85,19.283-1.85S184.928,436.906,184.928,437.928z"/>
			<g>
				<path style="fill:#FF6D6D;" d="M246.659,419.559l1.992,10.388c0,0,3.582,3.294,6.369,4.18c2.787,0.887,6.587,1.013,6.967,3.8
					h-21.62c-1.223,0-2.102-1.173-1.757-2.346c0.514-1.744,1.173-3.991,1.462-5.002c0.507-1.773-2.154-11.021-2.154-11.021H246.659z
					"/>
				<path style="fill:#FF6D6D;" d="M176.317,410.016l-5.242,9.187c0,0,0.58,4.831,2.12,7.317c1.541,2.486,4.345,5.053,2.822,7.418
					l-16.425-14.059c-0.929-0.795-0.834-2.258,0.191-2.924c1.524-0.991,3.486-2.269,4.363-2.849
					c1.538-1.018,5.531-9.773,5.531-9.773L176.317,410.016z"/>
				<path style="fill:#0C3069;" d="M213.09,275.4c0,39.397,17.487,96.655,17.487,96.655c-2.781,10.894,4.555,49.827,4.555,49.827
					h13.512c0.339-72.798-10.026-146.482-10.026-146.482H213.09z"/>
				<path style="fill:#FF6D6D;" d="M298.4,215.231l3.8-3.294c0,0,7.854-9.501,9.121-8.931c1.267,0.57-1.837,3.23-2.407,4.877
					c-0.57,1.647,0.76,3.927-0.507,5.764c-1.267,1.837-4.856,2.344-4.856,2.344l-1.605,2.048L298.4,215.231z"/>
				<polygon style="fill:#0C3069;" points="296.317,216.242 298.893,214.172 303.115,218.226 300.371,220.844 				"/>
				<path style="fill:#FF6D6D;" d="M236.569,173.254l-1.088,11.362c0,0,0.854,2.862-1.512,6.206
					c-0.429,0.606-1.213,0.857-1.925,0.644l-1.702-0.511l-1.954,18.62l-16.174-2.538l6.737-16.64c0,0-1.721-9.709-0.633-12.671
					C219.405,174.765,230.162,167.089,236.569,173.254z"/>
				
					<linearGradient id="SVGID_00000030447039134977325860000005979760758124969640_" gradientUnits="userSpaceOnUse" x1="220.0699" y1="191.3906" x2="230.3412" y2="191.3906">
					<stop  offset="0" style="stop-color:#F04F4F"/>
					<stop  offset="0.9465" style="stop-color:#F04F4F;stop-opacity:0.0535"/>
					<stop  offset="1" style="stop-color:#F04F4F;stop-opacity:0"/>
				</linearGradient>
				<path style="fill:url(#SVGID_00000030447039134977325860000005979760758124969640_);" d="M221.742,184.797l-1.672,2.478
					c0,0,0.631,8.442,9.533,10.71l0.738-7.03C227.987,190.236,222.447,187.456,221.742,184.797z"/>
				<path style="fill:#FFA526;" d="M232.851,205.601l-2.6-1.14v-1.47c0-0.692-0.561-1.254-1.254-1.254h-1.519
					c-0.819,0-1.565,0.473-1.915,1.214l-1.927,4.084l-0.659-5.081c-0.083-0.642-0.508-1.189-1.11-1.428l-6.265-2.489
					c-0.883-0.351-1.891-0.061-2.453,0.704l-1.286,1.749l-2.956,1.972l-3.547,74.585h26.856L232.851,205.601z"/>
				
					<linearGradient id="SVGID_00000145057036843656747240000001532188078587240353_" gradientUnits="userSpaceOnUse" x1="205.3622" y1="266.4206" x2="232.33" y2="266.4206">
					<stop  offset="0" style="stop-color:#000000"/>
					<stop  offset="1" style="stop-color:#000000;stop-opacity:0"/>
				</linearGradient>
				<polygon style="opacity:0.42;fill:url(#SVGID_00000145057036843656747240000001532188078587240353_);" points="206.373,255.794 
					205.362,277.047 232.218,277.047 232.33,264.396 				"/>
				
					<polyline style="fill:none;stroke:#786337;stroke-width:0.5;stroke-linecap:round;stroke-linejoin:round;stroke-miterlimit:10;" points="
					222.21,201.505 220.141,206.994 211.865,200.49 				"/>
				
					<polyline style="fill:none;stroke:#786337;stroke-width:0.5;stroke-linecap:round;stroke-linejoin:round;stroke-miterlimit:10;" points="
					226.348,202.983 226.348,208.303 230.252,204.46 				"/>
				<path style="fill:#1656BD;" d="M230.582,205.287c0.234-0.672,0.968-1.015,1.632-0.76c1.999,0.766,6.348,2.517,11.912,5.254
					c7.727,3.8,28.165,22.084,28.165,22.084l24.446-16.421l5.028,4.851c0,0-21.409,27.516-31.163,29.466
					c-9.754,1.95-25.876-9.439-25.876-9.439s-1.867,19.37-4.4,31.151l4.054,13.301c0,0-8.487,4.18-17.988,6.714
					c0,0,0.38-57.385,0-65.746C226.08,218.9,229.375,208.749,230.582,205.287z"/>
				
					<linearGradient id="SVGID_00000176726696237235688710000017285733542076421293_" gradientUnits="userSpaceOnUse" x1="244.7257" y1="237.5697" x2="259.6208" y2="237.5697">
					<stop  offset="0" style="stop-color:#000000"/>
					<stop  offset="0.9315" style="stop-color:#000000;stop-opacity:0"/>
				</linearGradient>
				<path style="opacity:0.42;fill:url(#SVGID_00000176726696237235688710000017285733542076421293_);" d="M249.826,235.18
					c-3.331-2.732-3.87-8.24-3.87-8.24l-1.231,13.383c0,0,7.205,5.086,14.895,7.878C255.553,245.351,255.521,239.85,249.826,235.18z
					"/>
				<path style="fill:#FFA526;" d="M270.601,249.761c2.13-0.426,4.815-2.071,7.712-4.382c-6.292-4.073-13.953,1.264-16.686,3.49
					C264.788,249.826,267.933,250.295,270.601,249.761z"/>
				<path style="fill:none;stroke:#0C3069;stroke-width:0.5;stroke-linecap:round;stroke-linejoin:round;stroke-miterlimit:10;" d="
					M273.177,232.456c0,0,1.689,0.422,2.322,1.478"/>
				<path style="fill:none;stroke:#0C3069;stroke-width:0.5;stroke-linecap:round;stroke-linejoin:round;stroke-miterlimit:10;" d="
					M272.164,232.71c0,0,0.549,0.802,0,3.716"/>
				
					<line style="fill:none;stroke:#0C3069;stroke-width:0.8094;stroke-miterlimit:10;" x1="234.317" y1="417.316" x2="248.651" y2="417.316"/>
				
					<line style="fill:none;stroke:#0C3069;stroke-width:0.8094;stroke-miterlimit:10;" x1="167.704" y1="405.438" x2="178.207" y2="410.9"/>
				
					<linearGradient id="SVGID_00000018956577151761511560000002378775748336850364_" gradientUnits="userSpaceOnUse" x1="217.275" y1="368.9452" x2="248.6519" y2="368.9452">
					<stop  offset="0" style="stop-color:#000000"/>
					<stop  offset="1" style="stop-color:#000000;stop-opacity:0"/>
				</linearGradient>
				<path style="opacity:0.42;fill:url(#SVGID_00000018956577151761511560000002378775748336850364_);" d="M235.132,421.882h13.512
					c0.062-13.392-0.238-26.812-0.769-39.8c-2.976-6.377-7.14-14.869-10.211-19.401c-5.322-7.854-2.278-20.775-8.232-30.403
					c-3.208-5.188-8.217-11.525-12.156-16.27c5.173,29.427,13.302,56.047,13.302,56.047
					C227.796,382.949,235.132,421.882,235.132,421.882z"/>
				<path style="fill:#0C3069;" d="M222.21,275.4c0,0-2.027,89.815-46.618,138.459l-8.994-4.56c0,0,10.261-37.75,20.543-48.26
					l4.704-85.639H222.21z"/>
				<path style="fill:none;stroke:#1656BD;stroke-width:0.8094;stroke-miterlimit:10;" d="M200.099,276.287
					c0,0-4.998,79.3-7.025,85.381c-2.027,6.081-23.318,49.232-23.318,49.232"/>
				<path style="fill:#0C3069;" d="M245.857,433.029c-3.04-0.084-2.702-2.956-5.785-2.449c-0.289,1.011-0.948,3.257-1.462,5.001
					c-0.345,1.173,0.534,2.346,1.757,2.346h21.62c-0.38-2.787-4.18-2.914-6.967-3.8c-2.787-0.887-6.369-4.18-6.369-4.18
					S248.897,433.114,245.857,433.029z"/>
				<path style="fill:#0C3069;" d="M166.948,419.727c-2.255-2.041-0.131-4.003-2.802-5.622c-0.877,0.58-2.838,1.858-4.363,2.849
					c-1.025,0.666-1.12,2.13-0.191,2.924l16.425,14.059c1.523-2.364-1.281-4.932-2.822-7.418c-1.541-2.486-2.12-7.317-2.12-7.317
					S169.203,421.768,166.948,419.727z"/>
				<path style="fill:none;stroke:#786337;stroke-width:0.5;stroke-linecap:round;stroke-linejoin:round;stroke-miterlimit:10;" d="
					M223.638,207.035c0,0,0.382,3.091-0.312,6.614c-0.693,3.522-1.2,7.745-1.116,12.305c0.084,4.56-0.76,15.877-0.76,15.877
					l-1.38,31.143"/>
				<path style="fill:#0C3069;" d="M221.742,184.797c-3.586-0.886-2.421-5.259-1.249-5.641c1.733-0.564,2.498,1.531,2.498,1.531
					s-0.747-4.61,3.19-5.54c3.938-0.931,10.238,0,12.601-1.146c2.363-1.145,2.935-7.231-2.721-7.661
					c-5.656-0.43-15.106,1.718-18.543,7.732c-3.437,6.014,1.432,16.323,1.432,16.323S221.097,187.86,221.742,184.797z"/>
				
					<line style="fill:none;stroke:#0C3069;stroke-width:0.5;stroke-linecap:round;stroke-linejoin:round;stroke-miterlimit:10;" x1="246.442" y1="221.657" x2="244.726" y2="240.322"/>
				<path style="fill:none;stroke:#0C3069;stroke-width:0.5;stroke-linecap:round;stroke-linejoin:round;stroke-miterlimit:10;" d="
					M248.243,227.452c0,0,0.092,6.244-3.311,10.628"/>
				<path style="fill:#1656BD;" d="M195.861,202.983c0,0,8.91-2.492,13.017-2.492c3.583,0,10.385,13.996,9.532,21.167
					c-1.013,8.519-2.702,43.313-5.067,51.083c-2.365,7.77-6.081,18.748-6.081,18.748s-12.33,1.013-24.491-6.756l11.317-21.62
					L195.861,202.983z"/>
				
					<linearGradient id="SVGID_00000045590865707937299220000016539849989535781253_" gradientUnits="userSpaceOnUse" x1="181.737" y1="251.3808" x2="233.4871" y2="251.8808">
					<stop  offset="0" style="stop-color:#000000"/>
					<stop  offset="1" style="stop-color:#000000;stop-opacity:0"/>
				</linearGradient>
				<path style="opacity:0.42;fill:url(#SVGID_00000045590865707937299220000016539849989535781253_);" d="M214.243,253.828
					c-1.585-0.791-2.778-2.18-3.152-3.912c-1.064-4.932-2.904-14.242-3.404-21.752c-0.716-10.754-4.812-16.498-4.812-16.498
					l-7.517,8.383l-1.27,43.064l-11.317,21.62c12.161,7.77,24.491,6.756,24.491,6.756s3.716-10.979,6.081-18.748
					c0.9-2.957,1.702-9.832,2.406-17.681C215.285,254.473,214.757,254.084,214.243,253.828z"/>
				<path style="fill:none;stroke:#1656BD;stroke-width:0.5;stroke-linecap:round;stroke-linejoin:round;stroke-miterlimit:10;" d="
					M217.275,316.009c0,0,3.751-29.32,3.82-38.123"/>
				
					<linearGradient id="SVGID_00000003788229141235007770000002254762243551213467_" gradientUnits="userSpaceOnUse" x1="216.1514" y1="272.1276" x2="209.6514" y2="291.0444">
					<stop  offset="0" style="stop-color:#000000"/>
					<stop  offset="1" style="stop-color:#000000;stop-opacity:0"/>
				</linearGradient>
				<path style="opacity:0.42;fill:url(#SVGID_00000003788229141235007770000002254762243551213467_);" d="M192.991,265.208
					c0,0,0.742,17.701,39.86,24.002l4.812-5.365L192.991,265.208z"/>
				<g>
					
						<rect x="228.181" y="251.19" transform="matrix(0.4185 0.9082 -0.9082 0.4185 397.7891 -41.1839)" style="fill:#A13D18;" width="5.751" height="77.731"/>
					
						<ellipse transform="matrix(0.4119 -0.9112 0.9112 0.4119 -64.1766 421.9366)" style="fill:#FF6026;" cx="294.79" cy="260.686" rx="32.598" ry="32.598"/>
					
						<ellipse transform="matrix(0.2976 -0.9547 0.9547 0.2976 -41.8173 464.5348)" style="fill:#FFFFFF;" cx="294.79" cy="260.686" rx="25.385" ry="25.385"/>
					
						<linearGradient id="SVGID_00000137839390487428045020000010194953199774844328_" gradientUnits="userSpaceOnUse" x1="309.8537" y1="226.2571" x2="296.5042" y2="265.5775">
						<stop  offset="0" style="stop-color:#FF8A8A"/>
						<stop  offset="1" style="stop-color:#FF8A8A;stop-opacity:0"/>
					</linearGradient>
					<path style="fill:url(#SVGID_00000137839390487428045020000010194953199774844328_);" d="M284.166,237.632
						c-0.671,0.309-1.318,0.65-1.949,1.009v44.092c6.874,3.912,15.466,4.571,23.197,1.008c12.733-5.867,18.298-20.946,12.431-33.678
						C311.977,237.33,296.898,231.764,284.166,237.632z"/>
					<g>
						
							<linearGradient id="SVGID_00000027572998050978945750000006230320545437449383_" gradientUnits="userSpaceOnUse" x1="269.8094" y1="254.8647" x2="320.1736" y2="254.8647">
							<stop  offset="0.0532" style="stop-color:#A1C1ED"/>
							<stop  offset="1" style="stop-color:#A1C1ED;stop-opacity:0"/>
						</linearGradient>
						<path style="fill:url(#SVGID_00000027572998050978945750000006230320545437449383_);" d="M318.93,252.85l-45.284-6.211
							c-1.918,2.893-3.222,6.151-3.837,9.559l50.248,6.892C320.382,259.709,320.031,256.23,318.93,252.85z"/>
						
							<linearGradient id="SVGID_00000021118661348585236070000002519333158557853349_" gradientUnits="userSpaceOnUse" x1="269.4012" y1="266.4724" x2="319.3171" y2="266.4724">
							<stop  offset="0.0532" style="stop-color:#A1C1ED"/>
							<stop  offset="1" style="stop-color:#A1C1ED;stop-opacity:0"/>
						</linearGradient>
						<path style="fill:url(#SVGID_00000021118661348585236070000002519333158557853349_);" d="M317.219,272.566
							c0.897-1.697,1.603-3.489,2.098-5.342l-49.914-6.846c-0.024,1.897,0.169,3.811,0.584,5.71L317.219,272.566z"/>
					</g>
					<path style="fill:#FF6026;" d="M257.483,273.84l-65.552,30.207c-0.286,0.132,0.169,1.73,1.017,3.569
						c0.848,1.84,1.767,3.224,2.053,3.092l65.552-30.207L257.483,273.84z"/>
				</g>
				<path style="fill:#A13D18;" d="M241.851,281.043c0,0,4.515,1.951,5.721,5.44l-9.909,4.566l-0.884-2.31
					c0,0-3.356-0.958-5.422-2.86L241.851,281.043z"/>
				<path style="fill:#FF6D6D;" d="M232.218,278.905l3.547,2.407c0,0,4.349,0.169,6.503,1.942c2.153,1.773,3.589,3.674,3.294,4.096
					c-0.296,0.422-3.209-2.703-3.209-2.703s3.125,4.307,2.618,5.109c-0.507,0.802-3.505-4.096-3.505-4.096s2.491,4.729,1.731,5.025
					c-0.76,0.296-3.336-4.18-3.336-4.18s1.309,3.828,0.802,4.194c-0.507,0.366-2.322-4.11-2.322-4.11s-2.998,0.549-4.138-2.154
					l-4.476-2.28L232.218,278.905z"/>
				<polygon style="fill:#FFFFFF;" points="229.684,276.287 233.062,278.736 229.895,284.225 225.8,282.536 				"/>
				<path style="fill:#1656BD;" d="M195.861,202.983c-7.516,2.702-11.739,18.68-9.374,35.098c2.365,16.418,3.8,27.692,12.921,34.786
					c9.121,7.094,27.566,10.742,27.566,10.742l3.603-7.214l-22.536-17.506c0,0,1.882-1.605-0.715-2.808
					c0,0-2.428-29.115-2.935-36.715C203.884,211.766,200.627,204.443,195.861,202.983z"/>
				<path style="fill:#FFA526;" d="M190.214,258.273c1.798,6.08,4.454,10.907,9.194,14.593c0.046,0.036,0.096,0.071,0.143,0.107
					C202.375,263.32,193.517,259.381,190.214,258.273z"/>
			</g>
		</g>
		<path style="fill:#A1C1ED;" d="M561.196,130.526c0,0-8.272-11.374-14.893,0c0,0,6.621-4.7,14.893,5.452
			c8.272-10.152,14.893-5.452,14.893-5.452C569.468,119.152,561.196,130.526,561.196,130.526z"/>
		<path style="fill:#A1C1ED;" d="M431.26,110.245c0,0-5.108-7.024-9.197,0c0,0,4.089-2.903,9.197,3.367
			c5.109-6.27,9.198-3.367,9.198-3.367C436.368,103.221,431.26,110.245,431.26,110.245z"/>
		
			<linearGradient id="SVGID_00000109710328049090123170000011569657316283179410_" gradientUnits="userSpaceOnUse" x1="545.6176" y1="71.9213" x2="545.6176" y2="113.8906">
			<stop  offset="0.0532" style="stop-color:#A1C1ED"/>
			<stop  offset="1" style="stop-color:#72A6ED"/>
		</linearGradient>
		<path style="fill:url(#SVGID_00000109710328049090123170000011569657316283179410_);" d="M496.371,102.712
			c15.38,0,81.932,0,96.021,0c14.09,0,7.794-5.995,0-7.494c-2.478-0.477-4.896-1.044-7.041-1.597
			c-4.132-1.064-7.663-3.879-9.41-7.772c-1.312-2.923-3.785-6.22-8.431-7.719c-4.686-1.512-8.763-0.889-11.653,0.1
			c-2.325,0.796-4.799-0.626-5.202-3.05c-1.407-8.472-5.576-24.03-17.215-24.03c-10.782,0-16.996,16.775-19.901,27.707
			c-1.728,6.503-6.433,11.794-12.71,14.218c-1.433,0.554-2.935,1.082-4.459,1.543C489.832,96.593,487.286,102.712,496.371,102.712z"
			/>
		<g>
			<ellipse style="fill:#CEDBED;" cx="588.35" cy="445.412" rx="13.403" ry="2.625"/>
			<ellipse style="fill:#CEDBED;" cx="487.051" cy="436.191" rx="13.404" ry="2.625"/>
			<g>
				<g>
					
						<rect x="495.775" y="232.26" transform="matrix(0.9889 -0.1483 0.1483 0.9889 -34.7003 76.965)" style="fill:#A13D18;" width="5.751" height="77.731"/>
					
						<ellipse transform="matrix(0.9989 -0.0462 0.0462 0.9989 -8.7957 22.7644)" style="fill:#FF6026;" cx="488.24" cy="201.727" rx="32.598" ry="32.598"/>
					
						<ellipse transform="matrix(0.994 -0.109 0.109 0.994 -19.0805 54.4244)" style="fill:#FFFFFF;" cx="488.24" cy="201.727" rx="25.385" ry="25.385"/>
					
						<linearGradient id="SVGID_00000138537370592891415750000010931004458194245509_" gradientUnits="userSpaceOnUse" x1="463.881" y1="185.4627" x2="505.9093" y2="185.4627">
						<stop  offset="0.0532" style="stop-color:#A1C1ED"/>
						<stop  offset="1" style="stop-color:#A1C1ED;stop-opacity:0"/>
					</linearGradient>
					<path style="fill:url(#SVGID_00000138537370592891415750000010931004458194245509_);" d="M505.909,194.586v-11.08
						c-5.488-5.313-13.298-8.103-21.435-6.883c-10.092,1.514-17.894,8.776-20.594,17.963H505.909z"/>
					<g>
						
							<linearGradient id="SVGID_00000059310576710644886830000016868414199290019735_" gradientUnits="userSpaceOnUse" x1="463.7946" y1="206.8287" x2="514.1606" y2="206.8287" gradientTransform="matrix(0.2792 -0.9602 0.9602 0.2792 147.5868 611.6778)">
							<stop  offset="0.0532" style="stop-color:#A1C1ED"/>
							<stop  offset="1" style="stop-color:#A1C1ED;stop-opacity:0"/>
						</linearGradient>
						<path style="fill:url(#SVGID_00000059310576710644886830000016868414199290019735_);" d="M487.455,176.359l-18.605,41.75
							c2.242,2.649,5.007,4.81,8.108,6.353l20.645-46.327C494.446,176.879,491.007,176.245,487.455,176.359z"/>
						
							<linearGradient id="SVGID_00000052089145296350476660000000361796875307750029_" gradientUnits="userSpaceOnUse" x1="463.3867" y1="218.437" x2="513.3045" y2="218.437" gradientTransform="matrix(0.2792 -0.9602 0.9602 0.2792 147.5868 611.6778)">
							<stop  offset="0.0532" style="stop-color:#A1C1ED"/>
							<stop  offset="1" style="stop-color:#A1C1ED;stop-opacity:0"/>
						</linearGradient>
						<path style="fill:url(#SVGID_00000052089145296350476660000000361796875307750029_);" d="M505.909,183.506
							c-1.379-1.335-2.903-2.513-4.544-3.506l-20.508,46.018c1.815,0.553,3.707,0.902,5.646,1.033L505.909,183.506z"/>
					</g>
					<path style="fill:#FF6026;" d="M490.456,241.223l10.707,71.378c0.047,0.311,1.708,0.32,3.711,0.02
						c2.003-0.301,3.589-0.797,3.542-1.108l-10.707-71.378L490.456,241.223z"/>
				</g>
				<path style="fill:#A13D18;" d="M492.782,256.728c0,0,6.071,2.06,7.265-1.015l2.834,18.892l-7.885-3.121L492.782,256.728z"/>
				<g>
					<path style="fill:#FF6D6D;" d="M500.269,399.43c0,0-5.044,23.854-5.648,26.027c-0.604,2.173-4.281,0.141-7.768-2.277
						c-3.875-2.688-4.604,1.308-3.759,4.166c0.845,2.858,3.902,2.007,6.196,5.146c2.294,3.139,4.552,5.77,7.813,4.563
						c3.26-1.207,1.355-2.852,3.166-7.319s10.022-22.82,10.022-22.82L500.269,399.43z"/>
					
						<linearGradient id="SVGID_00000148626063047962108350000009741418076354525844_" gradientUnits="userSpaceOnUse" x1="497.7364" y1="409.3182" x2="510.2901" y2="409.3182">
						<stop  offset="0" style="stop-color:#F04F4F"/>
						<stop  offset="0.9465" style="stop-color:#F04F4F;stop-opacity:0.0535"/>
						<stop  offset="1" style="stop-color:#F04F4F;stop-opacity:0"/>
					</linearGradient>
					<path style="fill:url(#SVGID_00000148626063047962108350000009741418076354525844_);" d="M500.269,399.43
						c0,0-1.22,5.771-2.532,11.894c1.195,2.583,3.396,6.046,7.092,7.883c2.682-6.077,5.462-12.291,5.462-12.291L500.269,399.43z"/>
					<path style="fill:#0C3069;" d="M493.728,431.18c-2.75-0.938-2.563-2.563-2.563-2.563c0.149-0.982,0.738-1.788,1.313-2.369
						c-1.514-0.395-3.6-1.664-5.626-3.069c-3.875-2.688-4.604,1.308-3.759,4.166c0.845,2.858,3.902,2.007,6.196,5.146
						c2.294,3.139,4.552,5.77,7.813,4.563c3.26-1.207,1.355-2.852,3.166-7.319c0.056-0.138,0.118-0.29,0.186-0.453
						C498.159,429.058,495.868,431.91,493.728,431.18z"/>
					<path style="fill:#0C3069;" d="M535.79,278.555c0,0-6.913,12.414-12.833,29.167c-3.424,9.688-17.333,59.84-24.333,97.5
						c0,0,2,8.667,17.833,7.667c0,0,9.833-18.5,12.333-30.833c2.5-12.333,13.333-26.5,17.5-49.333c0,0,3.5,31.833,10,46.583
						s12,28,14.5,31s16.5-4.25,17.5-10.75s-10.75-23.843-11.5-35.046c-0.75-11.204-2.584-30.497-1.365-46.204
						c1.365-17.583-3.635-35.5-8.385-39.75H535.79z"/>
					
						<linearGradient id="SVGID_00000086679889155552039060000013164013207491361156_" gradientUnits="userSpaceOnUse" x1="546.2901" y1="362.5746" x2="588.3499" y2="362.5746">
						<stop  offset="0" style="stop-color:#000000"/>
						<stop  offset="0.9315" style="stop-color:#000000;stop-opacity:0"/>
					</linearGradient>
					<path style="opacity:0.22;fill:url(#SVGID_00000086679889155552039060000013164013207491361156_);" d="M588.29,399.555
						c0.206-1.343-0.137-3.153-0.809-5.271c-7.017-4.4-21.768-8.425-24.025-14.895c-2.5-7.167,2-11.5,1-21s-8.333-17-8.667-31
						c-0.333-14-2.883-15.208-4.508-11.333c-1.176,2.805-1.25,7.125-4.992,16.667c0,0,3.5,31.833,10,46.583s12,28,14.5,31
						S587.29,406.055,588.29,399.555z"/>
					
						<linearGradient id="SVGID_00000023278633919045926760000013130517939106277033_" gradientUnits="userSpaceOnUse" x1="552.9218" y1="269.5959" x2="554.9218" y2="323.2625">
						<stop  offset="0" style="stop-color:#000000"/>
						<stop  offset="0.9315" style="stop-color:#000000;stop-opacity:0"/>
					</linearGradient>
					<path style="opacity:0.22;fill:url(#SVGID_00000023278633919045926760000013130517939106277033_);" d="M567.04,278.555h-31.25
						c0,0-0.732,1.316-1.919,3.657c5.563,3.456,10.447,2.008,15.544,4.093c5.5,2.25,4.375,4.125,10.5,5.625
						c3.803,0.931,9.05-0.111,13.38,0.548C571.633,285.737,569.309,280.585,567.04,278.555z"/>
					<path style="fill:#FF6D6D;" d="M572.29,229.222c5,3.25,21.833,30.667,22.5,37.25c0.667,6.583-5.083,8.917-10,8.917
						c-4.917,0-19.083-2.333-19.083-2.333l2-4.333l15.417-2.417l-12.917-14C570.207,252.305,568.957,230.638,572.29,229.222z"/>
					
						<linearGradient id="SVGID_00000026137803326270789830000008485967379494308278_" gradientUnits="userSpaceOnUse" x1="575.3521" y1="244.2599" x2="585.8727" y2="244.2599">
						<stop  offset="0" style="stop-color:#F04F4F"/>
						<stop  offset="0.9465" style="stop-color:#F04F4F;stop-opacity:0.0535"/>
						<stop  offset="1" style="stop-color:#F04F4F;stop-opacity:0"/>
					</linearGradient>
					<path style="fill:url(#SVGID_00000026137803326270789830000008485967379494308278_);" d="M572.29,229.222
						c-3.333,1.417-2.083,23.083-2.083,23.083l6.452,6.993c4.433-6.768,4.071-15.875,3.514-20.47
						C576.924,234.059,573.952,230.302,572.29,229.222z"/>
					<path style="fill:#FF6D6D;" d="M546.603,201.242c0,0-0.559,4.244-1.438,5.063c-1.813,1.688-1.625,8.125-0.563,8.875
						s4.625,1.188,4.625,1.188v10.375h11.063l-4.25-18.563L546.603,201.242z"/>
					
						<linearGradient id="SVGID_00000159441788207574668350000010924403343712251798_" gradientUnits="userSpaceOnUse" x1="544.6026" y1="216.1877" x2="558.1919" y2="216.1877">
						<stop  offset="0" style="stop-color:#F04F4F"/>
						<stop  offset="0.9465" style="stop-color:#F04F4F;stop-opacity:0.0535"/>
						<stop  offset="1" style="stop-color:#F04F4F;stop-opacity:0"/>
					</linearGradient>
					<path style="fill:url(#SVGID_00000159441788207574668350000010924403343712251798_);" d="M549.228,220.72l8.964-3.142
						l-1.356-5.923c-4.213,2.792-10.477,4.167-12.233,3.524c1.063,0.75,4.625,1.188,4.625,1.188V220.72z"/>
					<path style="fill:#1656BD;" d="M537.373,229.222c0,0,14.417-5.333,24.583-3.25c10.167,2.083,10.333,3.25,10.333,3.25
						s0.665,11.091,2.763,16.07c0.273,0.648,0.401,1.335,0.367,2.037c-0.107,2.19-0.521,7.112-2.13,12.309
						c-2.167,7-5.417,14.917-5.417,14.917s2.083,2,1,3.667c-1.083,1.667-6,0.75-13.75,0.917c-7.75,0.167-19.083,2.292-21,0.104
						c-1.917-2.188,2.167-3.271,2.833-5.188c0.667-1.917,0.083-22.167,0.083-22.167L537.373,229.222z"/>
					
						<linearGradient id="SVGID_00000027591394488368304190000017067833372774262185_" gradientUnits="userSpaceOnUse" x1="561.8293" y1="220.7216" x2="561.8293" y2="256.5691">
						<stop  offset="0" style="stop-color:#000000"/>
						<stop  offset="0.9315" style="stop-color:#000000;stop-opacity:0"/>
					</linearGradient>
					<path style="opacity:0.42;fill:url(#SVGID_00000027591394488368304190000017067833372774262185_);" d="M575.357,246.336
						c-0.061-0.357-0.162-0.706-0.304-1.045c-2.097-4.979-2.763-16.07-2.763-16.07s-0.167-1.167-10.333-3.25
						c-4.264-0.874-9.273-0.441-13.655,0.353C548.318,226.361,557.301,246.117,575.357,246.336z"/>
					<path style="fill:none;stroke:#8C1919;stroke-width:0.7986;stroke-miterlimit:10;" d="M583.123,266.305
						c0,0,1.292,1.563,2.979,2.5"/>
					<path style="fill:#FF6D6D;" d="M537.373,229.222c4.543-0.929,8.833,8.833,2.917,21.583c-5.917,12.75-14.25,30.256-21.25,29.42
						c-7-0.836-19.5-11.711-19.5-11.711s-4.917-0.042-4.917-2.792c0,0-3.083-4.598-1.667-5.341c1.417-0.743,2.306,1.091,5.5,1.091
						c1.417,0,2-2.542,2-2.542c0.87,0.452,1.42,1.659,1.263,4.129c-0.058,0.914,0.613,1.717,1.523,1.827l11.263,1.367
						c0.936,0.082,1.841-0.382,2.299-1.202C524.65,250.98,530.268,230.675,537.373,229.222z"/>
					<path style="fill:#4A0D0D;" d="M570.79,410.305c2.5,3,16.5-4.25,17.5-10.75C589.228,392.992,569.45,408.258,570.79,410.305z"/>
					<path style="fill:#FF6D6D;" d="M570.79,410.305l11.312,17.086c0.393,0.593,0.57,1.294,0.5,2.001
						c-0.169,1.71-0.512,5.041-0.811,7.079c-0.417,2.833-2.333,8.333-0.583,8.917c1.75,0.583,9.583-9.75,11.417-13.083
						c1.833-3.333-3.213-4.583-4.273-5.333s-10.533-24.13-10.533-24.13S570.54,407.722,570.79,410.305z"/>
					<path style="fill:#0C3069;" d="M583.359,434.777c-0.42-0.22-0.826-1.01-1.136-1.772c-0.138,1.239-0.29,2.499-0.432,3.467
						c-0.417,2.833-2.333,8.333-0.583,8.917c1.75,0.583,9.583-9.75,11.417-13.083c1.833-3.333-3.213-4.583-4.273-5.333
						C584.827,426.888,583.359,434.777,583.359,434.777z"/>
					<path style="fill:#701414;" d="M546.603,201.242c0,0,0.402,7.188,4.795,10.063c0,0-3.607,4.125,1.018,12.313
						c0,0-3.634,4.875,5.777,11.563c9.411,6.688,19.786-2.188,13.536-14.188c0,0,4.125-3.5-4.5-10.125c0,0,2.64-13.108-11.313-15
						c-3.688-0.5-14.71-4.58-13.188,5.063c0.375,2.375,3.039,4.22,3.039,4.22L546.603,201.242z"/>
					
						<linearGradient id="SVGID_00000174596710273204396830000000331635235588688781_" gradientUnits="userSpaceOnUse" x1="570.7838" y1="408.0672" x2="581.6604" y2="408.0672">
						<stop  offset="0" style="stop-color:#F04F4F"/>
						<stop  offset="0.9465" style="stop-color:#F04F4F;stop-opacity:0.0535"/>
						<stop  offset="1" style="stop-color:#F04F4F;stop-opacity:0"/>
					</linearGradient>
					<path style="fill:url(#SVGID_00000174596710273204396830000000331635235588688781_);" d="M570.79,410.305l1.978,2.988
						c1.981-0.936,5.219-1.954,8.892-1.116c-2.085-4.997-3.843-9.335-3.843-9.335S570.54,407.722,570.79,410.305z"/>
				</g>
			</g>
		</g>
		<g>
			
				<linearGradient id="SVGID_00000140008134891425202200000007434926303266424960_" gradientUnits="userSpaceOnUse" x1="602.168" y1="141.2966" x2="602.168" y2="225.3383">
				<stop  offset="0" style="stop-color:#000000"/>
				<stop  offset="0.9315" style="stop-color:#000000;stop-opacity:0"/>
			</linearGradient>
			<path style="opacity:0.42;fill:url(#SVGID_00000140008134891425202200000007434926303266424960_);" d="M602.168,152.332
				c-15.929,0-28.842,12.913-28.842,28.842c0,6.315,2.035,12.152,5.478,16.903l-5.478,8.548l11.25-2.602
				c4.87,3.755,10.968,5.994,17.593,5.994c15.929,0,28.842-12.913,28.842-28.842S618.097,152.332,602.168,152.332z"/>
			<path style="fill:#FFFFFF;" d="M601.605,149.983c-15.929,0-28.842,12.913-28.842,28.842c0,6.315,2.036,12.152,5.478,16.903
				l-5.478,8.547l11.25-2.602c4.869,3.755,10.968,5.994,17.593,5.994c15.929,0,28.842-12.913,28.842-28.842
				C630.447,162.896,617.534,149.983,601.605,149.983z"/>
			<g>
				
					<ellipse transform="matrix(0.9252 -0.3794 0.3794 0.9252 -22.8665 241.6151)" style="fill:none;stroke:#3D7EEB;stroke-width:1.5955;stroke-miterlimit:10;" cx="601.605" cy="178.826" rx="14.186" ry="14.186"/>
				<g>
					<path style="fill:none;stroke:#3D7EEB;stroke-width:1.5955;stroke-miterlimit:10;" d="M590.141,187.181
						c3.248-1.607,7.2-2.55,11.463-2.55c4.258,0,8.205,0.94,11.451,2.543"/>
					<path style="fill:none;stroke:#3D7EEB;stroke-width:1.5955;stroke-miterlimit:10;" d="M613.066,170.471
						c-3.248,1.607-7.199,2.549-11.461,2.549c-4.263,0-8.215-0.943-11.463-2.55"/>
				</g>
				
					<ellipse style="fill:none;stroke:#3D7EEB;stroke-width:1.5955;stroke-miterlimit:10;" cx="601.605" cy="178.826" rx="8.25" ry="14.186"/>
				
					<line style="fill:none;stroke:#3D7EEB;stroke-width:1.5955;stroke-miterlimit:10;" x1="601.605" y1="164.639" x2="601.605" y2="193.012"/>
				
					<line style="fill:none;stroke:#3D7EEB;stroke-width:1.5955;stroke-miterlimit:10;" x1="615.791" y1="178.826" x2="587.418" y2="178.826"/>
			</g>
		</g>
	</g>
</g>
<g id="DESIGNED_BY_FREEPIK">
	<g>
		<g id="XMLID_319_">
			<g id="XMLID_338_">
				<path id="XMLID_346_" style="fill:#1D262D;" d="M385.104,465.465c-0.432,0.443-0.803,0.931-1.108,1.453l-0.465-0.241
					c-0.067-0.298-0.349-0.503-0.659-0.466c-0.331,0.039-0.568,0.339-0.529,0.67s0.339,0.568,0.67,0.529
					c0.065-0.008,0.127-0.026,0.184-0.052l0.451,0.234c-0.251,0.554-0.433,1.139-0.539,1.744l0.746,0.132
					c0.23-1.306,0.85-2.507,1.792-3.473L385.104,465.465z"/>
				<path id="XMLID_345_" style="fill:#1D262D;" d="M390.592,463.163c-0.171,0-0.341,0.006-0.51,0.017l-0.074-0.626
					c0.188-0.149,0.296-0.389,0.266-0.645c-0.046-0.393-0.402-0.674-0.795-0.628s-0.674,0.402-0.628,0.795
					c0.03,0.254,0.189,0.461,0.405,0.564l0.073,0.624c-0.714,0.116-1.403,0.332-2.06,0.646l0.327,0.684
					c0.934-0.447,1.942-0.673,2.995-0.673c0.496,0,0.993,0.053,1.475,0.158l0.161-0.741
					C391.693,463.222,391.142,463.163,390.592,463.163z"/>
				<path id="XMLID_344_" style="fill:#1D262D;" d="M397.194,465.711c0.331-0.04,0.566-0.341,0.525-0.672
					c-0.04-0.331-0.341-0.566-0.672-0.526c-0.309,0.038-0.535,0.304-0.53,0.609l-0.416,0.363c-0.418-0.43-0.89-0.813-1.408-1.139
					l-0.404,0.641c1.134,0.715,2.021,1.726,2.563,2.925l0.691-0.313c-0.251-0.554-0.568-1.072-0.942-1.545l0.402-0.351
					C397.065,465.716,397.129,465.719,397.194,465.711z"/>
				<path id="XMLID_343_" style="fill:#1D262D;" d="M390.044,473.372c-0.386,0.023-0.775,0.035-1.157,0.035
					c-0.88,0-1.733-0.061-2.478-0.179c-0.39-0.062-0.846-0.155-1.27-0.292c1.046,1.861,3.069,3.125,5.388,3.125
					c2.855,0,5.262-1.916,5.95-4.504c-0.682,0.449-1.505,0.825-2.459,1.123C392.839,473.047,391.464,473.286,390.044,473.372z"/>
				<path id="XMLID_339_" style="fill:#1D262D;" d="M390.592,464.68c-3.352,0-6.08,2.666-6.08,5.943
					c0,0.426,0.046,0.849,0.137,1.261c0.674,0.483,2.706,0.89,5.348,0.731c2.879-0.173,5.297-0.957,6.672-2.159
					c-0.005-0.195-0.021-0.39-0.045-0.582C396.244,466.913,393.65,464.68,390.592,464.68z M388.432,471.194
					c-1.02,0-1.85-0.83-1.85-1.85c0-1.02,0.83-1.85,1.85-1.85c1.02,0,1.85,0.83,1.85,1.85
					C390.282,470.365,389.452,471.194,388.432,471.194z M393.17,470.286c-0.75,0-1.36-0.61-1.36-1.36s0.61-1.361,1.36-1.361
					c0.75,0,1.361,0.61,1.361,1.361S393.92,470.286,393.17,470.286z"/>
			</g>
			<path id="XMLID_336_" style="fill:#1D262D;" d="M406.595,466.547c-0.295-0.116-0.806-0.309-1.382-0.237
				c-0.551,0.069-0.844,0.341-0.844,1.007v0.866h2.228v1.717h-2.228v5.455h-1.932v-5.455h-1.34v-1.717h1.34v-0.888
				c0-1.68,0.896-2.783,2.568-2.783c0.642,0,1.157,0.122,1.59,0.308L406.595,466.547z"/>
			<path id="XMLID_334_" style="fill:#1D262D;" d="M411.298,469.879c-0.177-0.03-0.358-0.046-0.526-0.046
				c-0.896,0-1.51,0.548-1.51,1.614v3.908h-1.932v-7.172h1.873v0.785c0.451-0.673,1.14-0.977,2.021-0.977
				c0.414,0,0.848,0.128,1.094,0.337L411.298,469.879z"/>
			<path id="XMLID_331_" style="fill:#1D262D;" d="M418.965,471.757c0,0.222-0.015,0.489-0.037,0.651h-5.085
				c0.207,1.036,0.933,1.488,1.843,1.488c0.622,0,1.295-0.252,1.813-0.688l1.132,1.243c-0.814,0.748-1.85,1.088-3.057,1.088
				c-2.198,0-3.723-1.495-3.723-3.753c0-2.258,1.48-3.797,3.627-3.797C417.544,467.99,418.958,469.522,418.965,471.757z
				 M413.851,471.091h3.175c-0.177-0.918-0.733-1.436-1.562-1.436C414.554,469.655,414.021,470.203,413.851,471.091z"/>
			<path id="XMLID_328_" style="fill:#1D262D;" d="M426.618,471.757c0,0.222-0.015,0.489-0.037,0.651h-5.085
				c0.207,1.036,0.932,1.488,1.843,1.488c0.622,0,1.295-0.252,1.813-0.688l1.132,1.243c-0.814,0.748-1.85,1.088-3.057,1.088
				c-2.198,0-3.723-1.495-3.723-3.753c0-2.258,1.48-3.797,3.627-3.797C425.197,467.99,426.611,469.522,426.618,471.757z
				 M421.504,471.091h3.175c-0.178-0.918-0.733-1.436-1.562-1.436C422.207,469.655,421.674,470.203,421.504,471.091z"/>
			<path id="XMLID_325_" style="fill:#1D262D;" d="M434.964,471.764c0,2.154-1.495,3.775-3.471,3.775
				c-0.962,0-1.643-0.378-2.109-0.933v3.708h-1.924v-10.133h1.887v0.792c0.466-0.585,1.155-0.984,2.139-0.984
				C433.469,467.99,434.964,469.61,434.964,471.764z M429.287,471.764c0,1.132,0.747,1.976,1.843,1.976
				c1.14,0,1.85-0.881,1.85-1.976c0-1.095-0.71-1.976-1.85-1.976C430.035,469.788,429.287,470.632,429.287,471.764z"/>
			<path id="XMLID_322_" style="fill:#1D262D;" d="M438.068,465.836c0,0.696-0.54,1.229-1.236,1.229
				c-0.696,0-1.229-0.533-1.229-1.229c0-0.696,0.533-1.243,1.229-1.243C437.527,464.592,438.068,465.14,438.068,465.836z
				 M437.809,475.354h-1.932v-7.172h1.932V475.354z"/>
			<path id="XMLID_320_" style="fill:#1D262D;" d="M441.032,470.736l2.702-2.554h2.368l-3.479,3.375l3.501,3.797h-2.376
				l-2.716-2.901v2.901H439.1v-10.658h1.932V470.736z"/>
		</g>
		<g>
			<path style="fill:#1D262D;" d="M309.412,475.289v-1.055c-0.527,0.718-1.391,1.23-2.387,1.23c-1.846,0-3.149-1.406-3.149-3.706
				c0-2.256,1.289-3.721,3.149-3.721c0.952,0,1.816,0.469,2.387,1.245v-3.765h1.099v9.77H309.412z M309.412,473.37v-3.208
				c-0.395-0.615-1.245-1.143-2.124-1.143c-1.421,0-2.27,1.172-2.27,2.739c0,1.567,0.85,2.724,2.27,2.724
				C308.168,474.483,309.017,473.986,309.412,473.37z"/>
			<path style="fill:#1D262D;" d="M311.932,471.744c0-2.051,1.465-3.706,3.486-3.706c2.139,0,3.398,1.67,3.398,3.794v0.279h-5.727
				c0.088,1.333,1.026,2.446,2.549,2.446c0.805,0,1.626-0.322,2.182-0.894l0.527,0.718c-0.703,0.703-1.655,1.084-2.812,1.084
				C313.44,475.465,311.932,473.956,311.932,471.744z M315.404,468.947c-1.509,0-2.256,1.274-2.315,2.358h4.643
				C317.718,470.25,317.015,468.947,315.404,468.947z"/>
			<path style="fill:#1D262D;" d="M319.607,474.351l0.571-0.791c0.469,0.542,1.362,1.011,2.329,1.011c1.084,0,1.67-0.513,1.67-1.216
				c0-1.714-4.38-0.659-4.38-3.281c0-1.098,0.952-2.036,2.636-2.036c1.201,0,2.051,0.454,2.622,1.026l-0.513,0.762
				c-0.424-0.513-1.201-0.894-2.109-0.894c-0.967,0-1.567,0.483-1.567,1.113c0,1.552,4.38,0.527,4.38,3.281
				c0,1.187-0.952,2.138-2.783,2.138C321.306,475.465,320.325,475.113,319.607,474.351z"/>
			<path style="fill:#1D262D;" d="M326.477,466.471c0-0.41,0.337-0.747,0.732-0.747c0.41,0,0.747,0.337,0.747,0.747
				c0,0.41-0.337,0.732-0.747,0.732C326.814,467.203,326.477,466.881,326.477,466.471z M326.667,475.289v-7.075h1.099v7.075H326.667
				z"/>
			<path style="fill:#1D262D;" d="M329.582,477.105l0.556-0.82c0.586,0.703,1.289,0.967,2.3,0.967c1.172,0,2.27-0.571,2.27-2.124
				v-1.011c-0.513,0.718-1.377,1.26-2.373,1.26c-1.845,0-3.149-1.377-3.149-3.662c0-2.27,1.289-3.677,3.149-3.677
				c0.952,0,1.802,0.469,2.373,1.245v-1.069h1.099v6.87c0,2.344-1.641,3.076-3.369,3.076
				C331.237,478.16,330.417,477.926,329.582,477.105z M334.709,473.253v-3.091c-0.381-0.615-1.23-1.143-2.109-1.143
				c-1.421,0-2.27,1.128-2.27,2.695c0,1.553,0.849,2.695,2.27,2.695C333.478,474.41,334.328,473.868,334.709,473.253z"/>
			<path style="fill:#1D262D;" d="M342.413,475.289v-4.629c0-1.245-0.63-1.641-1.582-1.641c-0.865,0-1.685,0.527-2.095,1.099v5.17
				h-1.099v-7.075h1.099v1.025c0.498-0.586,1.465-1.201,2.519-1.201c1.48,0,2.256,0.747,2.256,2.285v4.966H342.413z"/>
			<path style="fill:#1D262D;" d="M344.932,471.744c0-2.051,1.465-3.706,3.486-3.706c2.138,0,3.398,1.67,3.398,3.794v0.279h-5.727
				c0.088,1.333,1.025,2.446,2.549,2.446c0.806,0,1.626-0.322,2.183-0.894l0.527,0.718c-0.703,0.703-1.655,1.084-2.812,1.084
				C346.441,475.465,344.932,473.956,344.932,471.744z M348.404,468.947c-1.509,0-2.256,1.274-2.314,2.358h4.643
				C350.718,470.25,350.015,468.947,348.404,468.947z"/>
			<path style="fill:#1D262D;" d="M358.35,475.289v-1.055c-0.527,0.718-1.392,1.23-2.388,1.23c-1.845,0-3.149-1.406-3.149-3.706
				c0-2.256,1.289-3.721,3.149-3.721c0.952,0,1.817,0.469,2.388,1.245v-3.765h1.098v9.77H358.35z M358.35,473.37v-3.208
				c-0.396-0.615-1.245-1.143-2.124-1.143c-1.421,0-2.27,1.172-2.27,2.739c0,1.567,0.849,2.724,2.27,2.724
				C357.105,474.483,357.954,473.986,358.35,473.37z"/>
			<path style="fill:#1D262D;" d="M364.692,475.289v-9.77h1.099v3.765c0.572-0.776,1.421-1.245,2.388-1.245
				c1.845,0,3.149,1.465,3.149,3.721c0,2.299-1.304,3.706-3.149,3.706c-0.996,0-1.86-0.513-2.388-1.23v1.055H364.692z
				 M367.9,474.483c1.436,0,2.286-1.157,2.286-2.724c0-1.568-0.85-2.739-2.286-2.739c-0.864,0-1.728,0.527-2.109,1.143v3.208
				C366.171,473.986,367.036,474.483,367.9,474.483z"/>
			<path style="fill:#1D262D;" d="M372.529,477.061c0.161,0.073,0.425,0.117,0.601,0.117c0.483,0,0.806-0.161,1.055-0.747
				l0.469-1.069l-2.959-7.148h1.187l2.358,5.8l2.344-5.8h1.201l-3.545,8.51c-0.425,1.025-1.143,1.421-2.08,1.435
				c-0.234,0-0.601-0.044-0.806-0.103L372.529,477.061z"/>
		</g>
	</g>
</g>
</svg>
